<?xml version="1.0" standalone="no"?>
<!DOCTYPE svg PUBLIC "-//W3C//DTD SVG 20010904//EN"
 "http://www.w3.org/TR/2001/REC-SVG-20010904/DTD/svg10.dtd">
<svg version="1.0" xmlns="http://www.w3.org/2000/svg"
 width="28.000000pt" height="59.000000pt" viewBox="0 0 28.000000 59.000000"
 preserveAspectRatio="xMidYMid meet">

<g transform="translate(0.000000,59.000000) scale(0.100000,-0.100000)"
fill="#000000" stroke="none">
<path d="M65 425 c-30 -31 -55 -63 -55 -73 0 -10 26 -44 59 -76 61 -61 92 -70
115 -34 15 25 -7 46 -29 28 -14 -12 -23 -7 -63 33 l-47 47 47 47 48 47 45 -44
c25 -25 43 -50 41 -57 -6 -15 20 -37 34 -28 5 3 10 18 10 33 0 35 -94 132
-128 132 -13 0 -43 -22 -77 -55z"/>
<path d="M105 350 c-24 -26 -6 -52 20 -30 14 12 23 7 63 -33 l47 -47 -47 -47
-48 -47 -45 44 c-25 25 -43 50 -41 57 3 6 -1 16 -8 22 -19 16 -40 -12 -32 -42
6 -25 107 -127 126 -127 23 0 130 112 130 136 0 30 -99 134 -127 134 -11 0
-28 -9 -38 -20z"/>
</g>
</svg>
